<svg width="98" height="71" viewBox="0 0 98 71" fill="none" xmlns="http://www.w3.org/2000/svg">
<path d="M6.91797 61.2578H6.64453L6.45312 60.6152C6.44401 60.5788 6.43034 60.5332 6.41211 60.4785C6.12956 59.5944 5.66016 59.1523 5.00391 59.1523H2.81641V62.5703H5.63281V62.9668H2.81641V66.6445H5.00391C5.15885 66.6445 5.30469 66.6217 5.44141 66.5762C5.88802 66.4212 6.22526 65.9564 6.45312 65.1816L6.64453 64.5391H6.91797L6.84961 67H0.546875V66.6445H1.64062V59.1523H0.546875V58.7969H6.84961L6.91797 61.2578ZM12.8105 67L12.7012 65.5508C12.2546 66.5898 11.5345 67.1185 10.541 67.1367C10.0579 67.1367 9.61589 66.9954 9.21484 66.7129C8.50391 66.1934 8.14844 65.3685 8.14844 64.2383C8.14844 63.5547 8.30339 62.9395 8.61328 62.3926C9.1237 61.4993 9.88021 61.0527 10.8828 61.0527C11.6393 61.0527 12.2409 61.2988 12.6875 61.791V58.4551H11.3887V58.1133H13.7129L13.7402 66.6582H14.4238C14.4785 66.6582 14.5241 66.6628 14.5605 66.6719C14.6973 66.6901 14.7656 66.7995 14.7656 67H12.8105ZM9.31055 64.0742C9.31055 64.5026 9.35612 64.8854 9.44727 65.2227C9.67513 66.1341 10.1628 66.5898 10.9102 66.5898C11.2839 66.5898 11.6165 66.4577 11.9082 66.1934C12.4551 65.7012 12.7285 64.9082 12.7285 63.8145C12.7285 63.2949 12.651 62.8438 12.4961 62.4609C12.2135 61.75 11.7396 61.3945 11.0742 61.3945C10.8099 61.3945 10.5684 61.4538 10.3496 61.5723C9.6569 61.9551 9.31055 62.7891 9.31055 64.0742ZM22.1348 66.6582C22.1895 66.6582 22.235 66.6628 22.2715 66.6719C22.4082 66.6901 22.4766 66.7995 22.4766 67H20.5488L20.4531 65.6055C20.3529 65.8607 20.2207 66.0931 20.0566 66.3027C19.6191 66.8587 19.0586 67.1367 18.375 67.1367C17.0807 67.1276 16.429 66.3438 16.4199 64.7852V61.5312H15.3672V61.1895H17.4453V64.9902C17.4453 65.1361 17.4544 65.2728 17.4727 65.4004C17.5911 66.166 18.0241 66.5488 18.7715 66.5488C19.0449 66.5488 19.3092 66.4622 19.5645 66.2891C20.1387 65.9062 20.4258 65.3047 20.4258 64.4844V61.5312H19.3047V61.1895H21.4512V66.6582H22.1348ZM28.1914 67.1367C27.5534 67.1276 27.1797 66.7174 27.0703 65.9062C26.9883 66.0977 26.8652 66.2799 26.7012 66.4531C26.2454 66.9089 25.6849 67.1367 25.0195 67.1367C24.7461 67.1367 24.4863 67.0866 24.2402 66.9863C23.6296 66.7311 23.3242 66.2572 23.3242 65.5645C23.3242 65.3639 23.3516 65.1771 23.4062 65.0039C23.7161 64.1107 24.9421 63.6641 27.084 63.6641V62.8027C27.0566 61.9186 26.6146 61.4492 25.7578 61.3945C25.3932 61.3945 25.1243 61.5085 24.9512 61.7363C24.9056 61.8001 24.819 62.0007 24.6914 62.3379C24.5911 62.6022 24.4362 62.7344 24.2266 62.7344C24.181 62.7344 24.1354 62.7298 24.0898 62.7207C23.8255 62.6751 23.6934 62.5111 23.6934 62.2285C23.6934 62.0736 23.748 61.9186 23.8574 61.7637C24.2038 61.2897 24.8874 61.0527 25.9082 61.0527C25.9902 61.0527 26.0723 61.0527 26.1543 61.0527C27.4577 61.1257 28.1094 61.8138 28.1094 63.1172V66.002C28.1185 66.4577 28.2415 66.6947 28.4785 66.7129C28.7702 66.7038 28.9479 66.3665 29.0117 65.7012L29.3672 65.7148C29.3672 65.7604 29.3626 65.8105 29.3535 65.8652C29.2806 66.7129 28.8932 67.1367 28.1914 67.1367ZM25.4707 66.5898C25.6712 66.5898 25.8763 66.5443 26.0859 66.4531C26.6146 66.1979 26.9473 65.7559 27.084 65.127V64.0332C26.373 64.0423 25.8307 64.0879 25.457 64.1699C24.7552 64.334 24.4043 64.7214 24.4043 65.332C24.4043 65.487 24.418 65.6283 24.4453 65.7559C24.5729 66.3118 24.9147 66.5898 25.4707 66.5898ZM32.9082 66.6582C32.9629 66.6582 33.0085 66.6628 33.0449 66.6719C33.1816 66.6901 33.25 66.7995 33.25 67H29.873V66.6582C30.1829 66.6582 30.4062 66.6354 30.543 66.5898C30.7799 66.5078 30.8984 66.2572 30.8984 65.8379V61.5312H29.873V61.1895H31.8555L31.9102 62.543C32.0286 62.2695 32.1882 62.0234 32.3887 61.8047C32.8171 61.3398 33.3047 61.1074 33.8516 61.1074C33.9336 61.1074 34.0202 61.1165 34.1113 61.1348C34.5306 61.2259 34.7402 61.4766 34.7402 61.8867C34.7402 61.9414 34.7311 61.9961 34.7129 62.0508C34.64 62.3151 34.4668 62.4473 34.1934 62.4473C34.1387 62.4473 34.084 62.4382 34.0293 62.4199C33.9017 62.3835 33.765 62.2376 33.6191 61.9824C33.4915 61.7546 33.3503 61.6406 33.1953 61.6406C33.0586 61.6497 32.89 61.75 32.6895 61.9414C32.179 62.4427 31.9238 63.1081 31.9238 63.9375V66.6582H32.9082ZM40.0176 67L39.9082 65.5508C39.4616 66.5898 38.7415 67.1185 37.748 67.1367C37.265 67.1367 36.8229 66.9954 36.4219 66.7129C35.7109 66.1934 35.3555 65.3685 35.3555 64.2383C35.3555 63.5547 35.5104 62.9395 35.8203 62.3926C36.3307 61.4993 37.0872 61.0527 38.0898 61.0527C38.8464 61.0527 39.4479 61.2988 39.8945 61.791V58.4551H38.5957V58.1133H40.9199L40.9473 66.6582H41.6309C41.6855 66.6582 41.7311 66.6628 41.7676 66.6719C41.9043 66.6901 41.9727 66.7995 41.9727 67H40.0176ZM36.5176 64.0742C36.5176 64.5026 36.5632 64.8854 36.6543 65.2227C36.8822 66.1341 37.3698 66.5898 38.1172 66.5898C38.4909 66.5898 38.8236 66.4577 39.1152 66.1934C39.6621 65.7012 39.9355 64.9082 39.9355 63.8145C39.9355 63.2949 39.8581 62.8438 39.7031 62.4609C39.4206 61.75 38.9466 61.3945 38.2812 61.3945C38.0169 61.3945 37.7754 61.4538 37.5566 61.5723C36.8639 61.9551 36.5176 62.7891 36.5176 64.0742ZM44.0098 64.0879C44.0098 64.4798 44.0417 64.8353 44.1055 65.1543C44.3424 66.248 44.9212 66.7949 45.8418 66.7949C46.015 66.7949 46.1836 66.7721 46.3477 66.7266C47.1862 66.4622 47.6055 65.5645 47.6055 64.0332C47.6055 63.7689 47.5918 63.5273 47.5645 63.3086C47.4004 62.0326 46.8125 61.3945 45.8008 61.3945C45.582 61.3945 45.3724 61.431 45.1719 61.5039C44.3971 61.8138 44.0098 62.6751 44.0098 64.0879ZM45.8418 61.0527C46.4434 61.0527 46.9948 61.2122 47.4961 61.5312C48.3438 62.0872 48.7676 62.9395 48.7676 64.0879C48.7676 64.9355 48.5033 65.6419 47.9746 66.207C47.4004 66.8268 46.6758 67.1367 45.8008 67.1367C45.181 67.1367 44.6159 66.9635 44.1055 66.6172C43.2669 66.043 42.8477 65.1816 42.8477 64.0332C42.8477 63.2038 43.1165 62.5111 43.6543 61.9551C44.2376 61.3535 44.9668 61.0527 45.8418 61.0527ZM62.6582 58.7969V59.1523H61.5645V66.6445H62.3027C62.3483 66.6445 62.3939 66.6491 62.4395 66.6582C62.5853 66.6855 62.6582 66.7995 62.6582 67H59.377V66.6445H60.4707V60.0273L57.3125 67.0684H57.0254L54.0312 60.7656V66.6445H54.7695C54.8151 66.6445 54.8607 66.6491 54.9062 66.6582C55.0521 66.6855 55.125 66.7995 55.125 67H52.3906V66.6445H53.4844V59.1523H52.3906V58.7969H54.3457L57.5176 65.4824L60.4707 58.7969H62.6582ZM68.4141 67.1367C67.776 67.1276 67.4023 66.7174 67.293 65.9062C67.2109 66.0977 67.0879 66.2799 66.9238 66.4531C66.4681 66.9089 65.9076 67.1367 65.2422 67.1367C64.9688 67.1367 64.709 67.0866 64.4629 66.9863C63.8522 66.7311 63.5469 66.2572 63.5469 65.5645C63.5469 65.3639 63.5742 65.1771 63.6289 65.0039C63.9388 64.1107 65.1647 63.6641 67.3066 63.6641V62.8027C67.2793 61.9186 66.8372 61.4492 65.9805 61.3945C65.6159 61.3945 65.347 61.5085 65.1738 61.7363C65.1283 61.8001 65.0417 62.0007 64.9141 62.3379C64.8138 62.6022 64.6589 62.7344 64.4492 62.7344C64.4036 62.7344 64.3581 62.7298 64.3125 62.7207C64.0482 62.6751 63.916 62.5111 63.916 62.2285C63.916 62.0736 63.9707 61.9186 64.0801 61.7637C64.4264 61.2897 65.11 61.0527 66.1309 61.0527C66.2129 61.0527 66.2949 61.0527 66.377 61.0527C67.6803 61.1257 68.332 61.8138 68.332 63.1172V66.002C68.3411 66.4577 68.4642 66.6947 68.7012 66.7129C68.9928 66.7038 69.1706 66.3665 69.2344 65.7012L69.5898 65.7148C69.5898 65.7604 69.5853 65.8105 69.5762 65.8652C69.5033 66.7129 69.1159 67.1367 68.4141 67.1367ZM65.6934 66.5898C65.8939 66.5898 66.099 66.5443 66.3086 66.4531C66.8372 66.1979 67.1699 65.7559 67.3066 65.127V64.0332C66.5957 64.0423 66.0534 64.0879 65.6797 64.1699C64.9779 64.334 64.627 64.7214 64.627 65.332C64.627 65.487 64.6406 65.6283 64.668 65.7559C64.7956 66.3118 65.1374 66.5898 65.6934 66.5898ZM73.1309 66.6582C73.1855 66.6582 73.2311 66.6628 73.2676 66.6719C73.4043 66.6901 73.4727 66.7995 73.4727 67H70.0957V66.6582C70.4056 66.6582 70.6289 66.6354 70.7656 66.5898C71.0026 66.5078 71.1211 66.2572 71.1211 65.8379V61.5312H70.0957V61.1895H72.0781L72.1328 62.543C72.2513 62.2695 72.4108 62.0234 72.6113 61.8047C73.0397 61.3398 73.5273 61.1074 74.0742 61.1074C74.1562 61.1074 74.2428 61.1165 74.334 61.1348C74.7533 61.2259 74.9629 61.4766 74.9629 61.8867C74.9629 61.9414 74.9538 61.9961 74.9355 62.0508C74.8626 62.3151 74.6895 62.4473 74.416 62.4473C74.3613 62.4473 74.3066 62.4382 74.252 62.4199C74.1243 62.3835 73.9876 62.2376 73.8418 61.9824C73.7142 61.7546 73.5729 61.6406 73.418 61.6406C73.2812 61.6497 73.1126 61.75 72.9121 61.9414C72.4017 62.4427 72.1465 63.1081 72.1465 63.9375V66.6582H73.1309ZM75.3047 61.5312V61.1895H76.2617V59.8906L77.2871 59.6035V61.1895H79.4062V61.5312H77.2871V65.6875C77.2962 66.3711 77.5469 66.722 78.0391 66.7402C78.4766 66.6764 78.8092 66.2663 79.0371 65.5098L79.4062 65.5781C79.4062 65.5872 79.4062 65.5964 79.4062 65.6055C79.1966 66.6354 78.6725 67.1504 77.834 67.1504C76.8496 67.1139 76.3255 66.526 76.2617 65.3867V61.5312H75.3047ZM82.6875 66.6582C82.7331 66.6582 82.7786 66.6628 82.8242 66.6719C82.9609 66.6901 83.0293 66.7995 83.0293 67H79.8848V66.6582C80.1947 66.6582 80.418 66.64 80.5547 66.6035C80.8372 66.5124 80.9785 66.2572 80.9785 65.8379V61.5312H79.8848V61.1895H82.0039V66.6582H82.6875ZM82.168 59.1934C82.168 59.3027 82.1452 59.4076 82.0996 59.5078C81.972 59.7995 81.7487 59.9453 81.4297 59.9453C81.3294 59.9453 81.2292 59.9271 81.1289 59.8906C80.8281 59.763 80.6777 59.5306 80.6777 59.1934C80.6777 59.084 80.7005 58.9792 80.7461 58.8789C80.8828 58.5872 81.1107 58.4414 81.4297 58.4414C81.5299 58.4414 81.6348 58.4642 81.7441 58.5098C82.0267 58.6465 82.168 58.8743 82.168 59.1934ZM86.5156 66.6582C86.5703 66.6582 86.6159 66.6628 86.6523 66.6719C86.7891 66.6901 86.8574 66.7995 86.8574 67H83.8496V66.6582C84.1595 66.6582 84.3828 66.6354 84.5195 66.5898C84.7565 66.5078 84.875 66.2572 84.875 65.8379V61.5312H83.8496V61.1895H85.832L85.8867 62.5566C85.987 62.3014 86.1191 62.069 86.2832 61.8594C86.7207 61.3216 87.2767 61.0527 87.9512 61.0527C88.2884 61.0527 88.6029 61.1393 88.8945 61.3125C89.5234 61.7044 89.8379 62.3561 89.8379 63.2676V66.6582H90.5215C90.5762 66.6582 90.6217 66.6628 90.6582 66.6719C90.7949 66.6901 90.8633 66.7995 90.8633 67H87.7871V66.6582C88.097 66.6582 88.3203 66.6354 88.457 66.5898C88.694 66.5078 88.8125 66.2572 88.8125 65.8379V63.1309C88.8125 62.8665 88.7715 62.6296 88.6895 62.4199C88.4889 61.9004 88.1107 61.6406 87.5547 61.6406C87.2995 61.6406 87.0488 61.7181 86.8027 61.873C86.2285 62.2467 85.9277 62.8574 85.9004 63.7051V66.6582H86.5156ZM93.8027 66.7676C94.4316 66.7676 94.8555 66.5762 95.0742 66.1934C95.1562 66.0566 95.1973 65.9062 95.1973 65.7422C95.1973 65.3594 94.9193 65.0312 94.3633 64.7578C94.2448 64.694 94.0488 64.6029 93.7754 64.4844C93.028 64.1745 92.5312 63.8828 92.2852 63.6094C92.0208 63.3086 91.8887 62.9577 91.8887 62.5566C91.8887 61.9277 92.235 61.4857 92.9277 61.2305C93.2467 61.112 93.5931 61.0527 93.9668 61.0527C94.5684 61.0527 95.0879 61.1803 95.5254 61.4355C95.5254 61.1712 95.5892 61.0208 95.7168 60.9844C95.7715 60.9753 95.8307 60.9707 95.8945 60.9707V62.6797H95.5391C95.5208 61.8411 95.056 61.4173 94.1445 61.4082C93.4609 61.4082 93.0371 61.6087 92.873 62.0098C92.8275 62.1191 92.8047 62.2331 92.8047 62.3516C92.8047 62.7435 93.0872 63.0762 93.6523 63.3496C93.7799 63.4134 93.9805 63.5 94.2539 63.6094C94.9922 63.9102 95.4844 64.1973 95.7305 64.4707C95.9948 64.7624 96.127 65.1087 96.127 65.5098C96.127 66.248 95.735 66.7402 94.9512 66.9863C94.6504 67.0866 94.3223 67.1367 93.9668 67.1367C93.3105 67.1276 92.7409 66.9635 92.2578 66.6445C92.2578 66.8815 92.1986 67.0182 92.0801 67.0547C92.0254 67.0638 91.9616 67.0684 91.8887 67.0684V64.9902H92.2715C92.2897 66.166 92.8001 66.7585 93.8027 66.7676Z" fill="#FFE605"/>
<path d="M36.6484 26.3906H35.4766L34.6562 23.6367C34.6172 23.4805 34.5586 23.2852 34.4805 23.0508C33.2695 19.2617 31.2578 17.3672 28.4453 17.3672H19.0703V32.0156H31.1406V33.7148H19.0703V49.4766H28.4453C29.1094 49.4766 29.7344 49.3789 30.3203 49.1836C32.2344 48.5195 33.6797 46.5273 34.6562 43.207L35.4766 40.4531H36.6484L36.3555 51H9.34375V49.4766H14.0312V17.3672H9.34375V15.8438H36.3555L36.6484 26.3906ZM85.3398 15.8438V17.3672H80.6523V49.4766H83.8164C84.0117 49.4766 84.207 49.4961 84.4023 49.5352C85.0273 49.6523 85.3398 50.1406 85.3398 51H71.2773V49.4766H75.9648V21.1172L62.4297 51.293H61.1992L48.3672 24.2812V49.4766H51.5312C51.7266 49.4766 51.9219 49.4961 52.1172 49.5352C52.7422 49.6523 53.0547 50.1406 53.0547 51H41.3359V49.4766H46.0234V17.3672H41.3359V15.8438H49.7148L63.3086 44.4961L75.9648 15.8438H85.3398Z" fill="#FFE605"/>
</svg>
